<svg id="Group_8" data-name="Group 8" xmlns="http://www.w3.org/2000/svg" width="87.723" height="58.35" viewBox="0 0 87.723 58.35">
  <path id="Path_1" data-name="Path 1" d="M635.666,156.348c-.126.31-.236.628-.38.929-1.3,2.717-2.654,5.406-3.879,8.154a22.21,22.21,0,0,0-1.994,6.97,19.989,19.989,0,0,0,.082,2.5c.012.36.21.434.535.444,1.333.042,2.671.048,4,.18a20.379,20.379,0,0,1,15.251,8.868,18.128,18.128,0,0,1,3.374,12.151c-.515,6.907-4.021,11.966-9.934,15.383-7.841,4.531-17.91,2.934-24.579-2.948a17.643,17.643,0,0,1-6.223-11.7,27.5,27.5,0,0,1,.919-9.977,50.86,50.86,0,0,1,7.9-16.2,64.949,64.949,0,0,1,12.987-13.724c.557-.44,1.185-.79,1.781-1.182Z" transform="translate(-611.787 -156.192)" fill="#bcbcbc"/>
  <path id="Path_2" data-name="Path 2" d="M208.781,156.634c-.12.295-.226.6-.363.884-1.248,2.6-2.566,5.165-3.734,7.8a23.967,23.967,0,0,0-2.171,7.542,17.165,17.165,0,0,0,.084,2.289c.016.362.206.46.565.477a47.125,47.125,0,0,1,4.916.311,20.235,20.235,0,0,1,15.927,11.476,15.509,15.509,0,0,1,1.677,7.668,26.825,26.825,0,0,1-.205,4.257,18.606,18.606,0,0,1-5.751,10.056,19.2,19.2,0,0,1-11.654,5.3,21.509,21.509,0,0,1-18.079-6.738,17.813,17.813,0,0,1-5.043-14.145,38.807,38.807,0,0,1,4.973-16.14,63.9,63.9,0,0,1,17.29-20.283c.438-.34.93-.609,1.4-.911Z" transform="translate(-137.971 -156.468)" fill="#bcbcbc"/>
</svg>
